<mxfile host="Electron" modified="2024-04-12T05:30:32.625Z" agent="Mozilla/5.0 (Windows NT 10.0; Win64; x64) AppleWebKit/537.36 (KHTML, like Gecko) draw.io/24.1.0 Chrome/120.0.6099.109 Electron/28.1.0 Safari/537.36" etag="A2xNd2SzPladc1WJBvcW" version="24.1.0" type="device">
  <diagram name="Page-1" id="e7e014a7-5840-1c2e-5031-d8a46d1fe8dd">
    <mxGraphModel dx="1235" dy="731" grid="1" gridSize="10" guides="1" tooltips="1" connect="1" arrows="1" fold="1" page="1" pageScale="1" pageWidth="1169" pageHeight="827" background="none" math="0" shadow="0">
      <root>
        <mxCell id="0" />
        <mxCell id="1" parent="0" />
        <mxCell id="2" value="Student" style="swimlane;whiteSpace=wrap;rounded=0;" parent="1" vertex="1">
          <mxGeometry x="164.5" y="42" width="355.5" height="828" as="geometry" />
        </mxCell>
        <mxCell id="Cs65BiLq7Zp8iHm1XdWI-53" value="" style="edgeStyle=orthogonalEdgeStyle;rounded=0;orthogonalLoop=1;jettySize=auto;html=1;" edge="1" parent="2" source="7" target="Cs65BiLq7Zp8iHm1XdWI-52">
          <mxGeometry relative="1" as="geometry" />
        </mxCell>
        <mxCell id="7" value="Login" style="rounded=0;" parent="2" vertex="1">
          <mxGeometry x="60" y="78" width="110" height="40" as="geometry" />
        </mxCell>
        <mxCell id="Cs65BiLq7Zp8iHm1XdWI-57" value="" style="edgeStyle=orthogonalEdgeStyle;rounded=0;orthogonalLoop=1;jettySize=auto;html=1;" edge="1" parent="2" source="Cs65BiLq7Zp8iHm1XdWI-52" target="Cs65BiLq7Zp8iHm1XdWI-55">
          <mxGeometry relative="1" as="geometry" />
        </mxCell>
        <mxCell id="Cs65BiLq7Zp8iHm1XdWI-52" value="" style="rhombus;whiteSpace=wrap;html=1;rounded=0;" vertex="1" parent="2">
          <mxGeometry x="75" y="158" width="80" height="80" as="geometry" />
        </mxCell>
        <mxCell id="Cs65BiLq7Zp8iHm1XdWI-60" value="" style="edgeStyle=orthogonalEdgeStyle;rounded=0;orthogonalLoop=1;jettySize=auto;html=1;" edge="1" parent="2" source="Cs65BiLq7Zp8iHm1XdWI-55">
          <mxGeometry relative="1" as="geometry">
            <mxPoint x="255.5" y="318" as="targetPoint" />
          </mxGeometry>
        </mxCell>
        <mxCell id="Cs65BiLq7Zp8iHm1XdWI-55" value="SignUp" style="rounded=1;whiteSpace=wrap;html=1;" vertex="1" parent="2">
          <mxGeometry x="195.5" y="178" width="120" height="40" as="geometry" />
        </mxCell>
        <mxCell id="Cs65BiLq7Zp8iHm1XdWI-65" value="" style="endArrow=classic;html=1;rounded=0;exitX=1;exitY=0.5;exitDx=0;exitDy=0;entryX=1;entryY=0.5;entryDx=0;entryDy=0;" edge="1" parent="2" source="Cs65BiLq7Zp8iHm1XdWI-67" target="Cs65BiLq7Zp8iHm1XdWI-55">
          <mxGeometry width="50" height="50" relative="1" as="geometry">
            <mxPoint x="295.5" y="358" as="sourcePoint" />
            <mxPoint x="505.5" y="178" as="targetPoint" />
            <Array as="points">
              <mxPoint x="345.5" y="298" />
              <mxPoint x="345.5" y="198" />
            </Array>
          </mxGeometry>
        </mxCell>
        <mxCell id="Cs65BiLq7Zp8iHm1XdWI-72" value="" style="edgeStyle=orthogonalEdgeStyle;rounded=0;orthogonalLoop=1;jettySize=auto;html=1;" edge="1" parent="2" source="Cs65BiLq7Zp8iHm1XdWI-67" target="Cs65BiLq7Zp8iHm1XdWI-70">
          <mxGeometry relative="1" as="geometry" />
        </mxCell>
        <mxCell id="Cs65BiLq7Zp8iHm1XdWI-67" value="" style="rhombus;whiteSpace=wrap;html=1;rounded=0;" vertex="1" parent="2">
          <mxGeometry x="215.5" y="258" width="80" height="80" as="geometry" />
        </mxCell>
        <mxCell id="Cs65BiLq7Zp8iHm1XdWI-70" value="View Courses" style="rounded=1;whiteSpace=wrap;html=1;" vertex="1" parent="2">
          <mxGeometry x="55" y="278" width="120" height="40" as="geometry" />
        </mxCell>
        <mxCell id="Cs65BiLq7Zp8iHm1XdWI-69" value="" style="endArrow=classic;html=1;rounded=0;exitX=0.5;exitY=1;exitDx=0;exitDy=0;entryX=0.5;entryY=0;entryDx=0;entryDy=0;" edge="1" parent="2" source="Cs65BiLq7Zp8iHm1XdWI-52" target="Cs65BiLq7Zp8iHm1XdWI-70">
          <mxGeometry width="50" height="50" relative="1" as="geometry">
            <mxPoint x="455.5" y="228" as="sourcePoint" />
            <mxPoint x="505.5" y="178" as="targetPoint" />
          </mxGeometry>
        </mxCell>
        <mxCell id="Cs65BiLq7Zp8iHm1XdWI-66" value="(No)" style="text;html=1;align=center;verticalAlign=middle;resizable=0;points=[];autosize=1;strokeColor=none;fillColor=none;" vertex="1" parent="2">
          <mxGeometry x="295.5" y="268" width="50" height="30" as="geometry" />
        </mxCell>
        <mxCell id="Cs65BiLq7Zp8iHm1XdWI-73" value="(Yes)" style="text;html=1;align=center;verticalAlign=middle;resizable=0;points=[];autosize=1;strokeColor=none;fillColor=none;" vertex="1" parent="2">
          <mxGeometry x="175" y="268" width="50" height="30" as="geometry" />
        </mxCell>
        <mxCell id="Cs65BiLq7Zp8iHm1XdWI-71" value="(Yes)" style="text;html=1;align=center;verticalAlign=middle;resizable=0;points=[];autosize=1;strokeColor=none;fillColor=none;" vertex="1" parent="2">
          <mxGeometry x="60" y="228" width="50" height="30" as="geometry" />
        </mxCell>
        <mxCell id="Cs65BiLq7Zp8iHm1XdWI-54" value="(SignUp)" style="text;html=1;align=center;verticalAlign=middle;resizable=0;points=[];autosize=1;strokeColor=none;fillColor=none;" vertex="1" parent="2">
          <mxGeometry x="40" y="128" width="70" height="30" as="geometry" />
        </mxCell>
        <mxCell id="Cs65BiLq7Zp8iHm1XdWI-58" value="(No)" style="text;html=1;align=center;verticalAlign=middle;resizable=0;points=[];autosize=1;strokeColor=none;fillColor=none;" vertex="1" parent="2">
          <mxGeometry x="145.5" y="198" width="50" height="30" as="geometry" />
        </mxCell>
        <mxCell id="Cs65BiLq7Zp8iHm1XdWI-76" value="Select Course" style="rounded=0;" vertex="1" parent="2">
          <mxGeometry x="60" y="359" width="110" height="40" as="geometry" />
        </mxCell>
        <mxCell id="Cs65BiLq7Zp8iHm1XdWI-82" value="Compile basic info&#xa;to purchase course" style="rounded=0;" vertex="1" parent="2">
          <mxGeometry x="60" y="438" width="110" height="40" as="geometry" />
        </mxCell>
        <mxCell id="Cs65BiLq7Zp8iHm1XdWI-107" value="" style="endArrow=classic;html=1;rounded=0;exitX=0.5;exitY=1;exitDx=0;exitDy=0;entryX=0;entryY=0.5;entryDx=0;entryDy=0;" edge="1" parent="2">
          <mxGeometry width="50" height="50" relative="1" as="geometry">
            <mxPoint x="115.5" y="478" as="sourcePoint" />
            <mxPoint x="440.5" y="497" as="targetPoint" />
            <Array as="points">
              <mxPoint x="115.5" y="497" />
            </Array>
          </mxGeometry>
        </mxCell>
        <mxCell id="Cs65BiLq7Zp8iHm1XdWI-108" value="Make Payment" style="rounded=0;" vertex="1" parent="2">
          <mxGeometry x="60" y="518" width="110" height="40" as="geometry" />
        </mxCell>
        <mxCell id="Cs65BiLq7Zp8iHm1XdWI-109" value="" style="endArrow=classic;html=1;rounded=0;entryX=1;entryY=0.5;entryDx=0;entryDy=0;exitX=0.5;exitY=1;exitDx=0;exitDy=0;" edge="1" parent="2">
          <mxGeometry width="50" height="50" relative="1" as="geometry">
            <mxPoint x="495" y="518" as="sourcePoint" />
            <mxPoint x="170" y="538" as="targetPoint" />
            <Array as="points">
              <mxPoint x="495" y="538" />
            </Array>
          </mxGeometry>
        </mxCell>
        <mxCell id="Cs65BiLq7Zp8iHm1XdWI-111" value="Show Purchased&#xa;Courses" style="rounded=0;" vertex="1" parent="2">
          <mxGeometry x="60" y="598" width="110" height="40" as="geometry" />
        </mxCell>
        <mxCell id="Cs65BiLq7Zp8iHm1XdWI-112" value="" style="endArrow=classic;html=1;rounded=0;exitX=0.5;exitY=1;exitDx=0;exitDy=0;entryX=0;entryY=0.5;entryDx=0;entryDy=0;" edge="1" parent="2">
          <mxGeometry width="50" height="50" relative="1" as="geometry">
            <mxPoint x="115.5" y="558" as="sourcePoint" />
            <mxPoint x="440.5" y="577" as="targetPoint" />
            <Array as="points">
              <mxPoint x="115.5" y="577" />
            </Array>
          </mxGeometry>
        </mxCell>
        <mxCell id="Cs65BiLq7Zp8iHm1XdWI-114" value="Add Review&#xa;and ratings" style="rounded=0;" vertex="1" parent="2">
          <mxGeometry x="60" y="658" width="110" height="40" as="geometry" />
        </mxCell>
        <mxCell id="Cs65BiLq7Zp8iHm1XdWI-115" value="" style="endArrow=classic;html=1;rounded=0;exitX=0.5;exitY=1;exitDx=0;exitDy=0;entryX=0.5;entryY=0;entryDx=0;entryDy=0;" edge="1" parent="2" source="Cs65BiLq7Zp8iHm1XdWI-111" target="Cs65BiLq7Zp8iHm1XdWI-114">
          <mxGeometry width="50" height="50" relative="1" as="geometry">
            <mxPoint x="485.5" y="768" as="sourcePoint" />
            <mxPoint x="535.5" y="718" as="targetPoint" />
          </mxGeometry>
        </mxCell>
        <mxCell id="3" value="StudyNotion Platform" style="swimlane;whiteSpace=wrap;rounded=0;" parent="1" vertex="1">
          <mxGeometry x="520" y="42" width="280" height="828" as="geometry" />
        </mxCell>
        <mxCell id="Cs65BiLq7Zp8iHm1XdWI-44" value="" style="edgeStyle=orthogonalEdgeStyle;rounded=0;orthogonalLoop=1;jettySize=auto;html=1;entryX=0.5;entryY=0;entryDx=0;entryDy=0;" edge="1" parent="3" source="13" target="Cs65BiLq7Zp8iHm1XdWI-129">
          <mxGeometry relative="1" as="geometry">
            <mxPoint x="140" y="98" as="targetPoint" />
          </mxGeometry>
        </mxCell>
        <mxCell id="13" value="" style="ellipse;shape=startState;fillColor=#000000;strokeColor=#ff0000;rounded=0;" parent="3" vertex="1">
          <mxGeometry x="125" y="27" width="30" height="30" as="geometry" />
        </mxCell>
        <mxCell id="Cs65BiLq7Zp8iHm1XdWI-46" value="Show all&#xa;CreatedÂ Courses" style="rounded=0;" vertex="1" parent="3">
          <mxGeometry x="85" y="328" width="110" height="40" as="geometry" />
        </mxCell>
        <mxCell id="Cs65BiLq7Zp8iHm1XdWI-79" value="Show Course&#xa;Detail and Price" style="rounded=0;" vertex="1" parent="3">
          <mxGeometry x="85" y="398" width="110" height="40" as="geometry" />
        </mxCell>
        <mxCell id="Cs65BiLq7Zp8iHm1XdWI-106" value="Processing" style="rounded=0;" vertex="1" parent="3">
          <mxGeometry x="85" y="478" width="110" height="40" as="geometry" />
        </mxCell>
        <mxCell id="Cs65BiLq7Zp8iHm1XdWI-110" value="Course&#xa;Enrollement" style="rounded=0;" vertex="1" parent="3">
          <mxGeometry x="85" y="558" width="110" height="40" as="geometry" />
        </mxCell>
        <mxCell id="Cs65BiLq7Zp8iHm1XdWI-116" value="Show Review&#xa;and Ratinngs" style="rounded=0;" vertex="1" parent="3">
          <mxGeometry x="85" y="638" width="110" height="40" as="geometry" />
        </mxCell>
        <mxCell id="Cs65BiLq7Zp8iHm1XdWI-123" value="" style="ellipse;html=1;shape=endState;fillColor=#000000;strokeColor=#ff0000;" vertex="1" parent="3">
          <mxGeometry x="125" y="708" width="30" height="30" as="geometry" />
        </mxCell>
        <mxCell id="Cs65BiLq7Zp8iHm1XdWI-126" value="End" style="ellipse;whiteSpace=wrap;html=1;" vertex="1" parent="3">
          <mxGeometry x="85" y="778" width="110" height="40" as="geometry" />
        </mxCell>
        <mxCell id="Cs65BiLq7Zp8iHm1XdWI-128" value="" style="endArrow=classic;html=1;rounded=0;exitX=0.5;exitY=1;exitDx=0;exitDy=0;" edge="1" parent="3" source="Cs65BiLq7Zp8iHm1XdWI-123" target="Cs65BiLq7Zp8iHm1XdWI-126">
          <mxGeometry width="50" height="50" relative="1" as="geometry">
            <mxPoint x="130" y="578" as="sourcePoint" />
            <mxPoint x="180" y="528" as="targetPoint" />
          </mxGeometry>
        </mxCell>
        <mxCell id="Cs65BiLq7Zp8iHm1XdWI-129" value="Start" style="ellipse;whiteSpace=wrap;html=1;" vertex="1" parent="3">
          <mxGeometry x="85" y="78" width="110" height="40" as="geometry" />
        </mxCell>
        <mxCell id="4" value="Instructor" style="swimlane;whiteSpace=wrap;rounded=0;" parent="1" vertex="1">
          <mxGeometry x="800" y="42" width="370" height="828" as="geometry" />
        </mxCell>
        <mxCell id="Cs65BiLq7Zp8iHm1XdWI-119" value="" style="edgeStyle=orthogonalEdgeStyle;rounded=0;orthogonalLoop=1;jettySize=auto;html=1;" edge="1" parent="4" source="Cs65BiLq7Zp8iHm1XdWI-93" target="Cs65BiLq7Zp8iHm1XdWI-118">
          <mxGeometry relative="1" as="geometry" />
        </mxCell>
        <mxCell id="Cs65BiLq7Zp8iHm1XdWI-93" value="Create Courses" style="rounded=1;whiteSpace=wrap;html=1;" vertex="1" parent="4">
          <mxGeometry x="66.5" y="328" width="120" height="40" as="geometry" />
        </mxCell>
        <mxCell id="Cs65BiLq7Zp8iHm1XdWI-121" value="" style="edgeStyle=orthogonalEdgeStyle;rounded=0;orthogonalLoop=1;jettySize=auto;html=1;" edge="1" parent="4" source="Cs65BiLq7Zp8iHm1XdWI-118" target="Cs65BiLq7Zp8iHm1XdWI-120">
          <mxGeometry relative="1" as="geometry" />
        </mxCell>
        <mxCell id="Cs65BiLq7Zp8iHm1XdWI-118" value="View Dashboard" style="rounded=1;whiteSpace=wrap;html=1;" vertex="1" parent="4">
          <mxGeometry x="66.5" y="448" width="120" height="40" as="geometry" />
        </mxCell>
        <mxCell id="Cs65BiLq7Zp8iHm1XdWI-120" value="View Rating&lt;div&gt;and Review&lt;/div&gt;" style="rounded=1;whiteSpace=wrap;html=1;" vertex="1" parent="4">
          <mxGeometry x="66.5" y="568" width="120" height="40" as="geometry" />
        </mxCell>
        <mxCell id="Cs65BiLq7Zp8iHm1XdWI-86" value="Login" style="rounded=0;" vertex="1" parent="4">
          <mxGeometry x="71.5" y="78" width="110" height="40" as="geometry" />
        </mxCell>
        <mxCell id="Cs65BiLq7Zp8iHm1XdWI-51" value="" style="edgeStyle=orthogonalEdgeStyle;rounded=0;orthogonalLoop=1;jettySize=auto;html=1;entryX=1;entryY=0.5;entryDx=0;entryDy=0;" edge="1" parent="1" target="7">
          <mxGeometry relative="1" as="geometry">
            <mxPoint x="605" y="140" as="sourcePoint" />
            <mxPoint x="450" y="160" as="targetPoint" />
          </mxGeometry>
        </mxCell>
        <mxCell id="Cs65BiLq7Zp8iHm1XdWI-74" value="" style="edgeStyle=orthogonalEdgeStyle;rounded=0;orthogonalLoop=1;jettySize=auto;html=1;entryX=0;entryY=0.5;entryDx=0;entryDy=0;exitX=0.5;exitY=1;exitDx=0;exitDy=0;" edge="1" parent="1" source="Cs65BiLq7Zp8iHm1XdWI-70" target="Cs65BiLq7Zp8iHm1XdWI-46">
          <mxGeometry relative="1" as="geometry">
            <mxPoint x="615" y="150" as="sourcePoint" />
            <mxPoint x="345" y="150" as="targetPoint" />
            <Array as="points">
              <mxPoint x="279" y="390" />
              <mxPoint x="605" y="390" />
            </Array>
          </mxGeometry>
        </mxCell>
        <mxCell id="Cs65BiLq7Zp8iHm1XdWI-78" value="" style="endArrow=classic;html=1;rounded=0;entryX=1;entryY=0.5;entryDx=0;entryDy=0;exitX=0.5;exitY=1;exitDx=0;exitDy=0;" edge="1" parent="1" source="Cs65BiLq7Zp8iHm1XdWI-46" target="Cs65BiLq7Zp8iHm1XdWI-76">
          <mxGeometry width="50" height="50" relative="1" as="geometry">
            <mxPoint x="620" y="460" as="sourcePoint" />
            <mxPoint x="670" y="410" as="targetPoint" />
            <Array as="points">
              <mxPoint x="660" y="420" />
            </Array>
          </mxGeometry>
        </mxCell>
        <mxCell id="Cs65BiLq7Zp8iHm1XdWI-81" value="" style="endArrow=classic;html=1;rounded=0;exitX=0.5;exitY=1;exitDx=0;exitDy=0;entryX=0;entryY=0.5;entryDx=0;entryDy=0;" edge="1" parent="1" source="Cs65BiLq7Zp8iHm1XdWI-76" target="Cs65BiLq7Zp8iHm1XdWI-79">
          <mxGeometry width="50" height="50" relative="1" as="geometry">
            <mxPoint x="620" y="460" as="sourcePoint" />
            <mxPoint x="670" y="410" as="targetPoint" />
            <Array as="points">
              <mxPoint x="280" y="460" />
            </Array>
          </mxGeometry>
        </mxCell>
        <mxCell id="Cs65BiLq7Zp8iHm1XdWI-84" value="" style="endArrow=classic;html=1;rounded=0;entryX=1;entryY=0.5;entryDx=0;entryDy=0;exitX=0.5;exitY=1;exitDx=0;exitDy=0;" edge="1" parent="1" source="Cs65BiLq7Zp8iHm1XdWI-79" target="Cs65BiLq7Zp8iHm1XdWI-82">
          <mxGeometry width="50" height="50" relative="1" as="geometry">
            <mxPoint x="550" y="420" as="sourcePoint" />
            <mxPoint x="600" y="370" as="targetPoint" />
            <Array as="points">
              <mxPoint x="660" y="500" />
            </Array>
          </mxGeometry>
        </mxCell>
        <mxCell id="Cs65BiLq7Zp8iHm1XdWI-85" value="" style="edgeStyle=orthogonalEdgeStyle;rounded=0;orthogonalLoop=1;jettySize=auto;html=1;" edge="1" parent="1" source="Cs65BiLq7Zp8iHm1XdWI-86" target="Cs65BiLq7Zp8iHm1XdWI-88">
          <mxGeometry relative="1" as="geometry" />
        </mxCell>
        <mxCell id="Cs65BiLq7Zp8iHm1XdWI-87" value="" style="edgeStyle=orthogonalEdgeStyle;rounded=0;orthogonalLoop=1;jettySize=auto;html=1;" edge="1" parent="1" source="Cs65BiLq7Zp8iHm1XdWI-88" target="Cs65BiLq7Zp8iHm1XdWI-90">
          <mxGeometry relative="1" as="geometry" />
        </mxCell>
        <mxCell id="Cs65BiLq7Zp8iHm1XdWI-88" value="" style="rhombus;whiteSpace=wrap;html=1;rounded=0;" vertex="1" parent="1">
          <mxGeometry x="886.5" y="198" width="80" height="80" as="geometry" />
        </mxCell>
        <mxCell id="Cs65BiLq7Zp8iHm1XdWI-90" value="SignUp" style="rounded=1;whiteSpace=wrap;html=1;" vertex="1" parent="1">
          <mxGeometry x="1007" y="218" width="120" height="40" as="geometry" />
        </mxCell>
        <mxCell id="Cs65BiLq7Zp8iHm1XdWI-91" value="" style="endArrow=classic;html=1;rounded=0;exitX=1;exitY=0.5;exitDx=0;exitDy=0;entryX=1;entryY=0.5;entryDx=0;entryDy=0;" edge="1" parent="1" target="Cs65BiLq7Zp8iHm1XdWI-90">
          <mxGeometry width="50" height="50" relative="1" as="geometry">
            <mxPoint x="1107.5" y="338" as="sourcePoint" />
            <mxPoint x="1317" y="218" as="targetPoint" />
            <Array as="points">
              <mxPoint x="1157" y="338" />
              <mxPoint x="1157" y="238" />
            </Array>
          </mxGeometry>
        </mxCell>
        <mxCell id="Cs65BiLq7Zp8iHm1XdWI-92" value="" style="edgeStyle=orthogonalEdgeStyle;rounded=0;orthogonalLoop=1;jettySize=auto;html=1;exitX=0.5;exitY=1;exitDx=0;exitDy=0;" edge="1" parent="1" target="Cs65BiLq7Zp8iHm1XdWI-93" source="Cs65BiLq7Zp8iHm1XdWI-99">
          <mxGeometry relative="1" as="geometry">
            <mxPoint x="1027.5" y="338" as="sourcePoint" />
            <Array as="points">
              <mxPoint x="1067" y="339" />
              <mxPoint x="1010" y="339" />
              <mxPoint x="1010" y="381" />
            </Array>
          </mxGeometry>
        </mxCell>
        <mxCell id="Cs65BiLq7Zp8iHm1XdWI-94" value="" style="endArrow=classic;html=1;rounded=0;exitX=0.5;exitY=1;exitDx=0;exitDy=0;entryX=0.5;entryY=0;entryDx=0;entryDy=0;" edge="1" parent="1" source="Cs65BiLq7Zp8iHm1XdWI-88" target="Cs65BiLq7Zp8iHm1XdWI-93">
          <mxGeometry width="50" height="50" relative="1" as="geometry">
            <mxPoint x="1267" y="268" as="sourcePoint" />
            <mxPoint x="1317" y="218" as="targetPoint" />
          </mxGeometry>
        </mxCell>
        <mxCell id="Cs65BiLq7Zp8iHm1XdWI-95" value="(No)" style="text;html=1;align=center;verticalAlign=middle;resizable=0;points=[];autosize=1;strokeColor=none;fillColor=none;" vertex="1" parent="1">
          <mxGeometry x="1107" y="308" width="50" height="30" as="geometry" />
        </mxCell>
        <mxCell id="Cs65BiLq7Zp8iHm1XdWI-96" value="(Yes)" style="text;html=1;align=center;verticalAlign=middle;resizable=0;points=[];autosize=1;strokeColor=none;fillColor=none;" vertex="1" parent="1">
          <mxGeometry x="986.5" y="308" width="50" height="30" as="geometry" />
        </mxCell>
        <mxCell id="Cs65BiLq7Zp8iHm1XdWI-97" value="(Yes)" style="text;html=1;align=center;verticalAlign=middle;resizable=0;points=[];autosize=1;strokeColor=none;fillColor=none;" vertex="1" parent="1">
          <mxGeometry x="871.5" y="268" width="50" height="30" as="geometry" />
        </mxCell>
        <mxCell id="Cs65BiLq7Zp8iHm1XdWI-98" value="(No)" style="text;html=1;align=center;verticalAlign=middle;resizable=0;points=[];autosize=1;strokeColor=none;fillColor=none;" vertex="1" parent="1">
          <mxGeometry x="957" y="238" width="50" height="30" as="geometry" />
        </mxCell>
        <mxCell id="Cs65BiLq7Zp8iHm1XdWI-100" value="" style="edgeStyle=orthogonalEdgeStyle;rounded=0;orthogonalLoop=1;jettySize=auto;html=1;" edge="1" parent="1" source="Cs65BiLq7Zp8iHm1XdWI-90" target="Cs65BiLq7Zp8iHm1XdWI-99">
          <mxGeometry relative="1" as="geometry">
            <mxPoint x="1067" y="358" as="targetPoint" />
            <mxPoint x="1067" y="258" as="sourcePoint" />
          </mxGeometry>
        </mxCell>
        <mxCell id="Cs65BiLq7Zp8iHm1XdWI-99" value="" style="rhombus;whiteSpace=wrap;html=1;rounded=0;" vertex="1" parent="1">
          <mxGeometry x="1027" y="298" width="80" height="80" as="geometry" />
        </mxCell>
        <mxCell id="Cs65BiLq7Zp8iHm1XdWI-103" value="" style="endArrow=classic;html=1;rounded=0;exitX=0;exitY=0.5;exitDx=0;exitDy=0;entryX=1;entryY=0.5;entryDx=0;entryDy=0;" edge="1" parent="1" source="Cs65BiLq7Zp8iHm1XdWI-93" target="Cs65BiLq7Zp8iHm1XdWI-46">
          <mxGeometry width="50" height="50" relative="1" as="geometry">
            <mxPoint x="650" y="420" as="sourcePoint" />
            <mxPoint x="700" y="370" as="targetPoint" />
          </mxGeometry>
        </mxCell>
        <mxCell id="Cs65BiLq7Zp8iHm1XdWI-104" value="" style="endArrow=classic;html=1;rounded=0;entryX=0;entryY=0.5;entryDx=0;entryDy=0;exitX=1;exitY=0.5;exitDx=0;exitDy=0;" edge="1" parent="1" target="Cs65BiLq7Zp8iHm1XdWI-86">
          <mxGeometry width="50" height="50" relative="1" as="geometry">
            <mxPoint x="715" y="140" as="sourcePoint" />
            <mxPoint x="700" y="370" as="targetPoint" />
          </mxGeometry>
        </mxCell>
        <mxCell id="Cs65BiLq7Zp8iHm1XdWI-113" value="" style="endArrow=classic;html=1;rounded=0;entryX=1;entryY=0.5;entryDx=0;entryDy=0;exitX=0.5;exitY=1;exitDx=0;exitDy=0;" edge="1" parent="1" source="Cs65BiLq7Zp8iHm1XdWI-110" target="Cs65BiLq7Zp8iHm1XdWI-111">
          <mxGeometry width="50" height="50" relative="1" as="geometry">
            <mxPoint x="665" y="640" as="sourcePoint" />
            <mxPoint x="340" y="660" as="targetPoint" />
            <Array as="points">
              <mxPoint x="660" y="660" />
            </Array>
          </mxGeometry>
        </mxCell>
        <mxCell id="Cs65BiLq7Zp8iHm1XdWI-117" value="" style="endArrow=classic;html=1;rounded=0;exitX=1;exitY=0.5;exitDx=0;exitDy=0;entryX=0;entryY=0.5;entryDx=0;entryDy=0;" edge="1" parent="1" source="Cs65BiLq7Zp8iHm1XdWI-114" target="Cs65BiLq7Zp8iHm1XdWI-116">
          <mxGeometry width="50" height="50" relative="1" as="geometry">
            <mxPoint x="650" y="810" as="sourcePoint" />
            <mxPoint x="700" y="760" as="targetPoint" />
            <Array as="points">
              <mxPoint x="400" y="720" />
              <mxPoint x="400" y="700" />
            </Array>
          </mxGeometry>
        </mxCell>
        <mxCell id="Cs65BiLq7Zp8iHm1XdWI-122" value="" style="endArrow=classic;html=1;rounded=0;exitX=1;exitY=0.5;exitDx=0;exitDy=0;entryX=0;entryY=0.5;entryDx=0;entryDy=0;" edge="1" parent="1" source="Cs65BiLq7Zp8iHm1XdWI-116" target="Cs65BiLq7Zp8iHm1XdWI-120">
          <mxGeometry width="50" height="50" relative="1" as="geometry">
            <mxPoint x="650" y="620" as="sourcePoint" />
            <mxPoint x="700" y="570" as="targetPoint" />
            <Array as="points">
              <mxPoint x="770" y="700" />
              <mxPoint x="770" y="630" />
            </Array>
          </mxGeometry>
        </mxCell>
        <mxCell id="Cs65BiLq7Zp8iHm1XdWI-124" value="" style="endArrow=classic;html=1;rounded=0;exitX=0.5;exitY=1;exitDx=0;exitDy=0;entryX=0;entryY=0.5;entryDx=0;entryDy=0;" edge="1" parent="1" source="Cs65BiLq7Zp8iHm1XdWI-114" target="Cs65BiLq7Zp8iHm1XdWI-123">
          <mxGeometry width="50" height="50" relative="1" as="geometry">
            <mxPoint x="650" y="620" as="sourcePoint" />
            <mxPoint x="700" y="570" as="targetPoint" />
            <Array as="points">
              <mxPoint x="280" y="765" />
            </Array>
          </mxGeometry>
        </mxCell>
      </root>
    </mxGraphModel>
  </diagram>
</mxfile>
